<?xml version="1.0" encoding="UTF-8" standalone="no"?>
<svg
   viewBox="0 0 768 768"
   version="1.1"
   id="svg13"
   sodipodi:docname="svelte-kr-logo-square.svg"
   width="768"
   height="768"
   inkscape:version="1.1.1 (c3084ef, 2021-09-22)"
   inkscape:export-filename="/Users/elpion/Downloads/svelte-kr-logo-square.png"
   inkscape:export-xdpi="96"
   inkscape:export-ydpi="96"
   xmlns:inkscape="http://www.inkscape.org/namespaces/inkscape"
   xmlns:sodipodi="http://sodipodi.sourceforge.net/DTD/sodipodi-0.dtd"
   xmlns="http://www.w3.org/2000/svg"
   xmlns:svg="http://www.w3.org/2000/svg">
  <defs
     id="defs17">
    <rect
       x="63.594511"
       y="562.56683"
       width="561.0562"
       height="106.78163"
       id="rect5011" />
    <rect
       x="498.08869"
       y="603.43506"
       width="610.60206"
       height="94.67897"
       id="rect3605" />
  </defs>
  <sodipodi:namedview
     id="namedview15"
     pagecolor="#ffffff"
     bordercolor="#666666"
     borderopacity="1.0"
     inkscape:pageshadow="2"
     inkscape:pageopacity="0.0"
     inkscape:pagecheckerboard="0"
     showgrid="false"
     width="768px"
     showguides="true"
     inkscape:guide-bbox="true"
     inkscape:zoom="0.14855949"
     inkscape:cx="427.4382"
     inkscape:cy="299.5433"
     inkscape:window-width="1440"
     inkscape:window-height="847"
     inkscape:window-x="0"
     inkscape:window-y="25"
     inkscape:window-maximized="1"
     inkscape:current-layer="svg13" />
  <path
     d="m 554.92992,150.53898 c -43.66875,-62.581249 -130.05,-81.068749 -192.525,-41.33125 l -109.65,69.9125 c -29.9625,18.80625 -50.575,49.40625 -56.84375,84.25625 -5.20625,29.00625 -0.6375,58.96875 13.06875,85 -9.35,14.2375 -15.83125,30.28125 -18.80625,46.9625 -6.26875,35.4875 1.9125,72.0375 22.95,101.3625 43.775,62.58125 130.05,81.06875 192.525,41.33125 l 109.65,-69.9125 c 29.9625,-18.80625 50.575,-49.40625 56.84375,-84.25625 5.20625,-29.00625 0.6375,-58.96875 -13.06875,-85 9.35,-14.2375 15.83125,-30.175 18.80625,-46.9625 6.1625,-35.4875 -2.01875,-72.0375 -22.95,-101.3625"
     style="fill:#ff3e00;stroke-width:1.0625"
     id="path9" />
  <path
     d="m 351.67367,502.65148 c -35.38125,9.1375 -72.675,-4.675 -93.5,-34.6375 -12.64375,-17.6375 -17.53125,-39.63125 -13.8125,-60.9875 0.6375,-3.50625 1.4875,-6.90625 2.65625,-10.2 l 2.01875,-6.26875 5.63125,4.14375 c 12.9625,9.5625 27.51875,16.7875 42.925,21.4625 l 4.0375,1.275 -0.425,4.0375 c -0.53125,5.7375 1.0625,11.58125 4.4625,16.25625 6.26875,9.03125 17.53125,13.175 28.15625,10.4125 2.3375,-0.6375 4.675,-1.59375 6.69375,-2.975 l 109.65,-69.9125 c 5.41875,-3.4 9.1375,-8.925 10.30625,-15.3 1.16875,-6.48125 -0.31875,-13.06875 -4.14375,-18.38125 -6.26875,-9.03125 -17.53125,-13.175 -28.15625,-10.4125 -2.3375,0.6375 -4.675,1.59375 -6.69375,2.975 l -41.75625,26.66875 c -6.90625,4.35625 -14.34375,7.65 -22.3125,9.775 -35.38125,9.1375 -72.675,-4.675 -93.5,-34.6375 -12.64375,-17.6375 -17.53125,-39.63125 -13.8125,-60.9875 3.71875,-20.93125 16.15,-39.3125 34.2125,-50.68125 l 109.65,-69.9125 c 6.90625,-4.35625 14.34375,-7.65 22.3125,-9.775 35.38125,-9.1375 72.675,4.675 93.5,34.6375 12.64375,17.6375 17.53125,39.63125 13.8125,60.9875 -0.6375,3.50625 -1.4875,6.90625 -2.65625,10.2 l -2.01875,6.26875 -5.63125,-4.14375 c -12.9625,-9.5625 -27.51875,-16.7875 -42.925,-21.4625 l -4.0375,-1.275 0.425,-4.0375 c 0.53125,-5.7375 -1.0625,-11.58125 -4.4625,-16.25625 -6.26875,-9.03125 -17.53125,-13.175 -28.15625,-10.4125 -2.3375,0.6375 -4.675,1.59375 -6.69375,2.975 l -109.65,69.9125 c -5.41875,3.4 -9.1375,8.925 -10.30625,15.3 -1.16875,6.48125 0.31875,13.06875 4.14375,18.38125 6.26875,9.03125 17.53125,13.175 28.15625,10.4125 2.3375,-0.6375 4.675,-1.59375 6.69375,-2.975 l 41.75625,-26.66875 c 6.90625,-4.35625 14.34375,-7.65 22.3125,-9.775 35.38125,-9.1375 72.675,4.675 93.5,34.6375 12.64375,17.6375 17.53125,39.63125 13.8125,60.9875 -3.71875,20.93125 -16.15,39.3125 -34.2125,50.68125 l -109.65,69.9125 c -6.90625,4.35625 -14.45,7.65 -22.3125,9.775"
     style="fill:#ffffff;stroke-width:1.0625"
     id="path11" />
  <text
     xml:space="preserve"
     id="text3603"
     style="fill:black;fill-opacity:1;line-height:1.25;stroke:none;font-family:sans-serif;font-style:normal;font-weight:normal;font-size:40px;white-space:pre;shape-inside:url(#rect3605)" />
  <text
     xml:space="preserve"
     id="text5009"
     style="font-style:normal;font-weight:normal;font-size:85.3333px;line-height:1.25;font-family:sans-serif;letter-spacing:6px;white-space:pre;shape-inside:url(#rect5011);fill:#4a4a55;fill-opacity:1;stroke:none"
     transform="matrix(1.0625,0,0,1.0625,30.13819,4.9781225)"><tspan
       x="63.59375"
       y="640.41856"
       id="tspan115"><tspan
         style="font-weight:500;font-family:Overpass;-inkscape-font-specification:'Overpass Medium'"
         id="tspan113">SVELTE ·  KR</tspan></tspan></text>
</svg>
